<svg width="1440" height="67" viewBox="0 0 1440 67" fill="none" xmlns="http://www.w3.org/2000/svg">
<g clip-path="url(#clip0_1_196)">
<path d="M-25.5736 22.5161C-25.4067 22.508 -25.2399 22.493 -25.073 22.493C-19.4093 22.4917 -13.746 22.4917 -8.0823 22.4922C-7.48277 22.4922 -7.48191 22.493 -7.48149 23.0819C-7.48063 23.7898 -7.48959 24.4977 -7.47764 25.2056C-7.47295 25.4902 -7.56342 25.6157 -7.86638 25.6447C-8.69718 25.7245 -9.52244 25.8585 -10.3537 25.934C-11.4324 26.0322 -11.982 26.5685 -12.0204 27.7194C-12.058 28.8378 -12.0255 29.9587 -12.0341 31.0784C-12.0362 31.3554 -11.8843 31.3912 -11.6645 31.3899C-10.9566 31.3857 -10.2487 31.3886 -9.54079 31.3886C-5.9496 31.3886 -2.35841 31.3891 1.23278 31.3882C1.74697 31.3882 1.74868 31.3861 1.74911 30.8779C1.74953 29.8354 1.75593 28.7925 1.74526 27.7501C1.73374 26.601 1.18841 26.0428 0.0384216 25.9314C-0.830786 25.8474 -1.69615 25.7228 -2.56451 25.6272C-2.78 25.6033 -2.85596 25.4864 -2.85638 25.2965C-2.85894 24.4597 -2.85766 23.6234 -2.85681 22.7866C-2.85638 22.5801 -2.75354 22.4802 -2.5436 22.4917C-2.45399 22.4969 -2.36353 22.4909 -2.27349 22.4909C3.3642 22.4909 9.00232 22.4909 14.64 22.4909C15.2297 22.4909 15.2302 22.4917 15.2306 23.0879C15.231 23.783 15.2225 24.4781 15.2344 25.1732C15.2391 25.4612 15.1764 25.6123 14.8414 25.646C13.8834 25.742 12.9268 25.8598 11.9756 26.0083C11.2873 26.1158 10.8824 26.5485 10.7663 27.2372C10.713 27.5529 10.6742 27.8713 10.6746 28.196C10.6797 31.9033 10.6797 35.6101 10.6746 39.3173C10.6742 39.6421 10.7121 39.9608 10.768 40.2757C10.9093 41.0728 11.4533 41.4867 12.3618 41.5734C13.2182 41.6549 14.0703 41.7812 14.9255 41.8742C15.158 41.8994 15.2323 42.0107 15.231 42.2258C15.2267 43.0498 15.2263 43.8733 15.2306 44.6973C15.2319 44.9282 15.1282 45.0271 14.9029 45.0161C14.8128 45.0118 14.7228 45.0169 14.6328 45.0169C8.99507 45.0169 3.35694 45.0169 -2.28075 45.0169C-2.8598 45.0169 -2.86107 45.0161 -2.86235 44.4443C-2.86363 43.7492 -2.85723 43.054 -2.86449 42.3589C-2.8679 42.0619 -2.80176 41.8955 -2.44631 41.8622C-1.52632 41.776 -0.606762 41.6647 0.305544 41.517C1.15896 41.3788 1.63517 40.8454 1.65779 39.989C1.68936 38.8057 1.66675 37.6207 1.67401 36.4366C1.67529 36.2024 1.5733 36.1127 1.34799 36.1191C1.09069 36.1264 0.833387 36.1196 0.575653 36.1196C-3.44054 36.1196 -7.45631 36.1196 -11.4725 36.1196C-12.0324 36.1196 -12.0328 36.1204 -12.0332 36.6611C-12.0336 37.6263 -12.0294 38.5919 -12.0358 39.5572C-12.0375 39.8435 -11.9935 40.123 -11.9282 40.3969C-11.7575 41.1112 -11.2408 41.4837 -10.3934 41.5708C-9.53737 41.6583 -8.68566 41.7824 -7.82968 41.8695C-7.56128 41.8968 -7.47935 42.0159 -7.48149 42.2646C-7.48831 43.0498 -7.49258 43.8349 -7.47978 44.6201C-7.47466 44.9239 -7.59542 45.0254 -7.89156 45.0207C-8.70231 45.0079 -9.51348 45.0169 -10.3242 45.0169C-15.2156 45.0169 -20.107 45.0173 -24.9979 45.0161C-25.1904 45.0161 -25.3833 45.0011 -25.5757 44.993C-25.5757 43.9629 -25.5757 42.9333 -25.5757 41.9032C-24.5059 41.7735 -23.4349 41.6544 -22.3673 41.5098C-21.6393 41.4108 -21.2429 40.9568 -21.1038 40.2463C-21.0539 39.9911 -21.0406 39.7376 -21.0406 39.4803C-21.0406 36.7165 -21.0402 33.9527 -21.0406 31.1894C-21.0406 30.0326 -21.0291 28.8753 -21.047 27.7189C-21.0637 26.6445 -21.5732 26.0718 -22.593 25.9477C-23.5864 25.8269 -24.5815 25.7189 -25.5757 25.6054C-25.5736 24.5758 -25.5736 23.5457 -25.5736 22.5161Z" fill="#5F5F5F"/>
<path d="M31.8167 45.6881C31.128 45.6186 30.438 45.5601 29.7506 45.4773C26.7649 45.1172 23.8714 44.4421 21.2689 42.8539C18.3216 41.0553 16.5222 38.4673 16.1454 35.0084C15.7724 31.5858 16.6809 28.5532 19.2083 26.1162C20.7483 24.6308 22.6139 23.6874 24.6318 23.0328C26.6092 22.391 28.6433 22.0527 30.712 21.8594C32.5498 21.6878 34.3894 21.6729 36.2255 21.7373C39.5573 21.8542 42.837 22.3066 45.9238 23.6665C48.4187 24.7653 50.4802 26.3727 51.7232 28.8659C52.6274 30.6799 52.9572 32.6078 52.7908 34.6312C52.4145 39.2017 49.8094 42.0718 45.7731 43.8362C43.6349 44.7711 41.3725 45.2426 39.0589 45.485C38.3957 45.5546 37.7322 45.6207 37.0691 45.6886C35.3183 45.6881 33.5675 45.6881 31.8167 45.6881ZM42.3757 33.698C42.4043 33.0221 42.3321 32.2809 42.2178 31.5435C41.8158 28.9445 40.4555 27.154 37.8385 26.4981C35.6605 25.9524 33.46 25.9511 31.271 26.455C28.7653 27.0319 27.2719 28.6185 26.7653 31.1232C26.4022 32.9197 26.4112 34.7238 26.7931 36.5198C27.2996 38.9 28.7192 40.4319 31.0892 41.0144C33.3482 41.5695 35.6268 41.5708 37.8816 40.9969C40.1453 40.4208 41.5415 38.9581 42.0723 36.6756C42.295 35.7189 42.3932 34.7507 42.3757 33.698Z" fill="#5F5F5F"/>
<path d="M172.164 44.9157C172.01 44.9238 171.856 44.9396 171.703 44.9396C165.614 44.9409 159.526 44.9409 153.437 44.9404C152.831 44.9404 152.83 44.9396 152.83 44.323C152.83 43.6151 152.838 42.9072 152.827 42.1992C152.823 41.9236 152.924 41.8207 153.203 41.793C154.034 41.7111 154.862 41.5976 155.69 41.4964C155.91 41.4696 156.119 41.4073 156.315 41.3087C156.878 41.0262 157.054 40.5688 156.785 39.997C156.494 39.377 156.058 38.8449 155.686 38.2739C155.556 38.0742 155.341 38.134 155.155 38.1335C152.015 38.1306 148.874 38.1314 145.733 38.1314C144.562 38.1314 143.39 38.1382 142.219 38.1267C141.945 38.1242 141.763 38.2031 141.622 38.448C141.32 38.9716 140.986 39.4768 140.678 39.9974C140.312 40.6157 140.489 41.1453 141.148 41.4495C141.691 41.7004 142.286 41.6193 142.853 41.7179C143.118 41.764 143.389 41.7704 143.658 41.796C144.225 41.8502 144.225 41.8506 144.226 42.4326C144.226 43.0889 144.227 43.7456 144.225 44.4019C144.225 44.9379 144.223 44.94 143.694 44.94C140.245 44.9409 136.795 44.9404 133.345 44.9404C132.315 44.9404 131.285 44.9298 130.256 44.9464C129.92 44.9519 129.8 44.8423 129.809 44.503C129.828 43.7439 129.823 42.9844 129.811 42.2248C129.806 41.9377 129.9 41.8195 130.202 41.7909C131.059 41.7098 131.912 41.5942 132.766 41.4883C133.503 41.397 134.002 40.969 134.379 40.3571C135.716 38.1882 137.058 36.0218 138.398 33.8549C139.596 31.9177 140.796 29.9813 141.992 28.0431C142.154 27.7816 142.325 27.5251 142.335 27.1961C142.356 26.5629 141.944 26.0837 141.312 26.0175C140.098 25.8908 138.886 25.7508 137.671 25.6378C137.385 25.6113 137.297 25.4991 137.301 25.2286C137.311 24.4694 137.319 23.7095 137.298 22.9504C137.288 22.5979 137.406 22.4831 137.761 22.4848C140.181 22.4972 142.6 22.4912 145.02 22.4912C148.058 22.4912 151.096 22.5134 154.134 22.4793C155.226 22.4669 155.998 22.8957 156.582 23.791C159.162 27.747 161.754 31.6958 164.341 35.6471C165.356 37.1978 166.374 38.7459 167.382 40.3017C167.914 41.1235 168.664 41.5174 169.634 41.5775C170.479 41.63 171.321 41.7405 172.165 41.8254C172.164 42.8559 172.164 43.886 172.164 44.9157ZM148.577 34.0764C149.876 34.0764 151.175 34.0772 152.475 34.0743C152.571 34.0738 152.702 34.1238 152.757 34.0154C152.811 33.9108 152.703 33.8276 152.649 33.7457C151.309 31.7022 149.965 29.6616 148.628 27.6156C148.474 27.3792 148.395 27.3292 148.224 27.6113C146.98 29.6552 145.722 31.6902 144.471 33.7286C144.274 34.0495 144.288 34.0751 144.679 34.0755C145.978 34.0777 147.277 34.0764 148.577 34.0764Z" fill="#5F5F5F"/>
<path d="M83.3109 38.9926C83.3109 35.9489 83.3181 33.0144 83.3066 30.0803C83.3032 29.1941 83.3834 28.3044 83.2494 27.4211C83.1026 26.4512 82.6422 26.0364 81.6727 25.9374C80.8168 25.8499 79.9646 25.7253 79.1082 25.6387C78.8402 25.6114 78.7493 25.4992 78.7651 25.2457C78.8176 24.3991 78.8654 23.5521 78.9094 22.7047C78.9192 22.5169 78.9947 22.4162 79.1893 22.4192C79.2921 22.4205 79.3954 22.4162 79.4982 22.4162C83.9134 22.4162 88.3285 22.4158 92.7437 22.4162C93.3202 22.4162 93.3211 22.4175 93.3215 22.9888C93.3223 23.7096 93.3142 24.4307 93.3249 25.1514C93.3287 25.4194 93.2425 25.538 92.9575 25.567C92.1783 25.646 91.4043 25.777 90.6247 25.8521C89.298 25.9797 88.8069 26.4887 88.7706 27.8273C88.7668 27.969 88.7694 28.1107 88.7694 28.2519C88.7694 33.6195 88.7694 38.9871 88.7694 44.3546C88.7694 44.9392 88.7685 44.9405 88.1732 44.9405C84.6721 44.9405 81.1709 44.9277 77.6698 44.9473C76.6457 44.9533 75.8955 44.5782 75.2712 43.7504C71.5281 38.7874 67.7556 33.8469 63.9924 28.8992C63.9097 28.7904 63.82 28.6871 63.724 28.5698C63.634 28.7123 63.6728 28.8433 63.6728 28.9658C63.6703 32.3381 63.6686 35.7108 63.6741 39.0831C63.6745 39.4552 63.7018 39.8294 63.7479 40.1989C63.8503 41.0139 64.4072 41.4778 65.3161 41.5708C66.1721 41.6583 67.0238 41.7833 67.8798 41.8695C68.1516 41.8968 68.225 42.0193 68.2224 42.2663C68.2147 43.0387 68.2058 43.8114 68.2262 44.5829C68.2352 44.9273 68.1068 45.0237 67.7761 45.022C65.5751 45.0114 63.3737 45.0165 61.1727 45.0165C58.8557 45.0165 56.5387 45.0101 54.2221 45.0229C53.8615 45.025 53.7151 44.9256 53.7275 44.5454C53.7514 43.7995 53.742 43.0523 53.7309 42.306C53.7266 42.0252 53.8086 41.8938 54.1158 41.8648C54.9466 41.7863 55.7727 41.6557 56.6031 41.5742C57.7416 41.4624 58.2737 40.8757 58.2818 39.6365C58.2929 37.9118 58.2852 36.187 58.2852 34.4618C58.2852 32.3509 58.2852 30.2399 58.2852 28.1286C58.2852 27.9997 58.289 27.8708 58.2813 27.7424C58.2122 26.5451 57.6972 26.0356 56.5143 25.9285C55.6831 25.8534 54.857 25.7253 54.027 25.6306C53.8167 25.6067 53.7352 25.5052 53.7356 25.305C53.7377 24.4683 53.7377 23.6319 53.7365 22.7951C53.736 22.5873 53.8312 22.4862 54.0416 22.4926C54.1444 22.496 54.2477 22.4913 54.3505 22.4913C59.2419 22.4913 64.1332 22.4913 69.0246 22.4913C69.2307 22.4913 69.4368 22.4887 69.6425 22.4964C70.4306 22.5246 71.0575 22.8139 71.5537 23.4727C75.3549 28.5207 79.1756 33.5542 82.9904 38.5919C83.0736 38.7029 83.1632 38.8087 83.3109 38.9926Z" fill="#5F5F5F"/>
<path d="M107.47 44.9405C102.792 44.9405 98.9306 44.9409 95.0684 44.9401C94.5158 44.9401 94.515 44.9384 94.5141 44.3858C94.5133 43.6651 94.5227 42.9439 94.5099 42.2232C94.5047 41.9348 94.6012 41.8221 94.902 41.7905C95.86 41.6903 96.8175 41.5763 97.7682 41.4244C98.4642 41.3135 98.8683 40.8804 98.9784 40.1955C99.0334 39.8541 99.0629 39.5047 99.0637 39.1586C99.0697 35.4509 99.0658 31.7437 99.0705 28.036C99.0709 27.7117 99.0372 27.3921 98.9822 27.0767C98.887 26.5335 98.561 26.1789 98.0302 26.0193C97.3223 25.8064 96.5828 25.812 95.8587 25.7113C94.5828 25.5342 94.8508 25.7987 94.8226 24.5963C94.809 24.0172 94.8282 23.4377 94.8175 22.8583C94.8128 22.5988 94.9016 22.4674 95.1734 22.4917C95.2374 22.4977 95.3018 22.4917 95.3663 22.4917C102.781 22.4922 110.197 22.4768 117.612 22.5024C120.266 22.5118 122.867 22.9193 125.329 23.975C127.913 25.0831 129.922 26.8041 130.968 29.4868C131.643 31.2197 131.821 33.0199 131.653 34.8693C131.506 36.4853 131.072 38.0014 130.221 39.3869C129.172 41.0959 127.679 42.3111 125.895 43.1774C123.735 44.2254 121.431 44.7361 119.047 44.8569C114.918 45.0655 110.785 44.8722 107.47 44.9405ZM107.844 33.7526C107.844 35.8499 107.844 37.9472 107.844 40.0449C107.844 40.5877 107.845 40.5898 108.367 40.5898C110.658 40.5906 112.948 40.5941 115.239 40.5868C115.778 40.5851 116.316 40.5783 116.855 40.5044C119.102 40.1981 120.424 39.0532 120.939 36.845C121.388 34.9175 121.358 32.9675 121.031 31.0238C120.848 29.937 120.447 28.9432 119.616 28.173C118.677 27.302 117.511 26.976 116.284 26.9526C113.634 26.9026 110.983 26.9325 108.332 26.9099C107.933 26.9065 107.833 27.0396 107.836 27.4215C107.853 29.532 107.844 31.6425 107.844 33.7526Z" fill="#5F5F5F"/>
</g>
<rect width="224.133" height="66.5394" transform="translate(268.164 0.000610352)" fill="white"/>
<path d="M481.945 35.7587L483.252 35.6532C483.788 35.611 484.324 35.5477 484.817 35.4845C486.103 35.2946 487.196 34.9571 488.096 34.493C488.439 34.3242 488.61 34.1977 488.996 33.9234C490.132 33.1218 490.711 32.046 490.797 30.5694C490.818 30.274 490.797 30.042 490.775 29.7888C490.711 28.8607 490.497 28.0802 490.111 27.4684C489.661 26.7301 489.018 26.1605 488.16 25.7386C487.303 25.3167 486.21 25.0003 484.945 24.8105C484.945 24.8105 483.081 24.5151 480.316 24.5151H459.182V42.045H465.826V35.8853H474.85L485.01 42.0661H492.297L481.945 35.7587ZM478.922 26.5613C478.965 26.5613 478.987 26.5613 479.03 26.5613C479.78 26.5824 480.423 26.6035 480.98 26.6668C481.687 26.7512 482.287 26.8989 482.759 27.152C483.252 27.4051 483.638 27.7848 483.831 28.2489C484.024 28.6497 484.109 29.156 484.131 29.7678C484.131 29.8099 484.152 30.6537 484.109 31.0756C484.088 31.4975 483.981 31.9616 483.831 32.278C483.681 32.6156 483.466 32.8898 483.166 33.1218C483.081 33.1851 482.995 33.2484 482.909 33.2906C482.48 33.5226 481.945 33.6703 481.259 33.7547C480.637 33.818 479.844 33.8602 478.901 33.8602H465.783V26.5613H478.922Z" fill="#5F5F5F"/>
<path d="M289.984 24.5361V32.7842C289.984 35.2523 289.062 37.0876 287.24 38.2267C285.675 39.2181 283.403 39.7244 280.51 39.7244H268.164V42.066H278.409C281.26 42.066 283.875 41.9605 286.168 41.7495C288.419 41.5386 290.327 41.1167 291.87 40.4838C293.37 39.8721 294.549 38.9861 295.364 37.847C296.092 36.8133 296.499 35.4633 296.585 33.7968C296.585 33.6491 296.607 33.4593 296.607 33.2483V24.5361H289.984Z" fill="#5F5F5F"/>
<path d="M366.053 34.0289V39.7245H355.914C350.599 39.7245 347.512 38.037 346.676 34.7462C346.334 33.375 346.548 32.0671 346.676 31.5819C347.491 28.2489 350.535 26.6246 355.914 26.6246H371.775V24.5363H357.993C355.1 24.5363 352.485 24.6417 350.192 24.8316C347.962 25.0214 346.033 25.4433 344.49 26.0551C342.968 26.6668 341.811 27.5317 341.018 28.6708C340.246 29.7467 339.861 31.2022 339.818 32.9953C339.818 33.0375 339.818 33.0797 339.818 33.143C339.818 33.2273 339.818 33.3117 339.818 33.4172C339.839 35.2735 340.246 36.7713 341.039 37.8682C341.854 39.0073 343.033 39.8933 344.533 40.5051C346.076 41.1379 348.005 41.5598 350.234 41.7707C352.528 41.9817 355.121 42.0872 357.993 42.0872H372.676V34.0289H366.053Z" fill="#5F5F5F"/>
<path d="M321.77 24.5363H314.932L299.607 42.0661H303.572L307.023 38.1213H326.292L329.743 42.0661H337.116L321.77 24.5363ZM316.647 27.1098L324.642 36.2439H308.674L316.647 27.1098Z" fill="#5F5F5F"/>
<path d="M431.082 24.5363L415.757 42.0661H419.722L423.173 38.1002H442.42L445.871 42.0661H453.266L437.94 24.5363H431.082ZM440.813 36.2439H424.823L432.818 27.1098L440.813 36.2439Z" fill="#5F5F5F"/>
<path d="M406.133 24.5363V33.4172C406.133 34.1766 406.026 34.8727 405.876 35.5056C405.019 38.7331 401.954 40.3785 396.681 40.3996H396.016C390.722 40.3996 387.636 38.712 386.8 35.4423C386.65 34.8305 386.564 34.1555 386.564 33.4383V24.5363H379.92V33.6914C379.92 35.59 380.327 37.151 381.141 38.2901C381.656 38.9862 382.299 39.6191 383.07 40.1253C383.542 40.4207 384.056 40.6949 384.635 40.927C385.214 41.159 385.835 41.3699 386.521 41.5387C387.657 41.834 388.943 42.045 390.358 42.1926C392.137 42.3614 394.152 42.4669 396.338 42.4669C398.546 42.4669 400.539 42.3614 402.318 42.1926C403.711 42.0661 404.997 41.8551 406.133 41.5598C406.819 41.391 407.441 41.1801 408.019 40.948C408.598 40.716 409.112 40.4629 409.584 40.1464C410.377 39.6402 411.02 39.0284 411.513 38.3112C412.328 37.1721 412.735 35.6111 412.735 33.7125V24.5363H406.133Z" fill="#5F5F5F"/>
<rect width="78.7967" height="66.5394" transform="translate(588.297 0.000610352)" fill="white"/>
<path d="M599.482 23.0483C603.581 11.1631 614.915 3.13253 627.695 3.13253C640.476 3.13253 651.81 11.1631 655.909 23.0483V23.1286H664.912V22.0846L661.214 21.6831C658.883 21.4422 658.401 20.3982 657.758 19.1133L657.597 18.7921C652.211 7.38872 640.476 0.000610352 627.695 0.000610352C614.915 0.000610352 603.179 7.38872 597.713 18.7921L597.552 19.1133C596.99 20.3982 596.427 21.4422 594.176 21.6831L590.398 22.0846V23.1286H599.401L599.482 23.0483Z" fill="#5F5F5F"/>
<path d="M655.989 42.8838V42.9641C651.81 54.8493 640.476 62.8799 627.695 62.8799C614.915 62.8799 603.581 54.8493 599.482 42.9641V42.8838H590.398V43.9278L594.176 44.3293C596.507 44.5702 596.99 45.6142 597.633 46.8991L597.794 47.2203C603.099 58.6237 614.915 66.0118 627.695 66.0118C640.476 66.0118 652.211 58.6237 657.677 47.2203L657.838 46.8991C658.481 45.6142 658.963 44.6505 661.295 44.3293L665.072 43.9278V42.8838H655.989Z" fill="#5F5F5F"/>
<path d="M606.555 28.8303H604.465V37.9852H606.555V28.8303Z" fill="#5F5F5F"/>
<path d="M599.562 37.9049V28.8303H597.552V35.6563L590.881 28.8303H588.308V37.9049H590.318V31.0789L597.07 37.9049H599.562Z" fill="#5F5F5F"/>
<path d="M645.298 28.8303L639.672 37.9852H642.083L643.048 36.379H649.558L650.523 37.9852H652.934L647.308 28.8303H645.298ZM648.594 34.6123H644.093L646.343 30.9183L648.594 34.6123Z" fill="#5F5F5F"/>
<path d="M633.965 36.0578C633.885 36.0578 633.643 36.0578 633.563 36.0578H625.123V37.9048H633.643C633.724 37.9048 634.206 37.9048 634.286 37.9048C636.055 37.7442 636.778 36.379 636.778 35.0941C636.778 33.8093 635.974 32.5244 634.367 32.3638C634.126 32.3638 633.885 32.3638 633.724 32.3638H628.177C627.936 32.3638 627.776 32.3638 627.534 32.2834C627.133 32.2031 626.891 31.8819 626.972 31.4804C626.972 31.0789 627.213 30.7576 627.615 30.6773C627.776 30.597 628.017 30.597 628.177 30.597H636.216V28.75H628.097C627.856 28.75 627.534 28.75 627.293 28.8303C625.927 28.9909 624.882 30.1152 624.882 31.4804C624.882 32.6047 625.605 33.9699 627.213 34.1305C627.534 34.1305 627.776 34.2108 628.097 34.1305H633.483C633.563 34.1305 633.804 34.1305 633.885 34.1305C634.367 34.2108 634.688 34.6123 634.688 35.0138C634.688 35.576 634.367 35.9775 633.965 36.0578Z" fill="#5F5F5F"/>
<path d="M619.175 36.0578C619.094 36.0578 618.853 36.0578 618.773 36.0578H610.413V37.9049H618.853C618.934 37.9049 619.416 37.9049 619.496 37.9049C621.265 37.7442 622.068 36.379 622.068 35.1745C622.068 33.9699 621.265 32.6047 619.657 32.4441C619.416 32.4441 619.175 32.4441 619.014 32.4441H613.468C613.227 32.4441 613.066 32.4441 612.825 32.3638C612.423 32.2835 612.182 31.9622 612.262 31.5607C612.262 31.1592 612.503 30.838 612.905 30.7577C613.066 30.6774 613.307 30.6774 613.468 30.6774H621.506V28.8303H613.307C613.066 28.8303 612.744 28.8303 612.503 28.9106C611.137 29.0712 610.092 30.1955 610.092 31.5607C610.092 32.685 610.815 34.0502 612.423 34.2108C612.744 34.2108 612.985 34.2911 613.307 34.2108H618.692C618.773 34.2108 619.014 34.2108 619.094 34.2108C619.577 34.2911 619.898 34.6926 619.898 35.0942C619.979 35.576 619.577 35.9775 619.175 36.0578Z" fill="#5F5F5F"/>
<path d="M667.082 37.9049V28.8303H665.072V35.6563L658.401 28.8303H655.829V37.9049H657.838V31.0789L664.59 37.9049H667.082Z" fill="#5F5F5F"/>
<path d="M661.857 60.4708C662.822 60.4708 663.625 61.2738 663.625 62.2375C663.625 63.2012 662.822 64.0042 661.857 64.0042C660.892 64.0042 660.089 63.2012 660.089 62.2375C660.089 61.7557 660.249 61.3541 660.651 60.9526C660.892 60.6314 661.375 60.3905 661.857 60.4708ZM661.857 63.6027C662.259 63.6027 662.58 63.4421 662.822 63.2012C663.063 62.9602 663.223 62.5587 663.223 62.2375C663.223 61.5147 662.58 60.8723 661.857 60.9526C661.134 60.9526 660.49 61.595 660.49 62.3178C660.49 62.9602 661.053 63.6027 661.857 63.6027ZM661.134 63.1208V61.3541C661.375 61.3541 661.535 61.2738 661.777 61.2738C662.098 61.2738 662.58 61.3541 662.58 61.7557C662.58 61.9966 662.42 62.1572 662.178 62.1572C662.339 62.2375 662.42 62.3981 662.5 62.5587C662.5 62.7193 662.58 62.8799 662.661 62.9602H662.259C662.178 62.7996 662.178 62.639 662.098 62.5587C662.018 62.3178 661.857 62.3178 661.535 62.3178V63.0405L661.134 63.1208ZM661.535 62.0769C661.857 62.0769 662.178 62.0769 662.178 61.836C662.178 61.6753 662.098 61.595 661.777 61.595C661.696 61.595 661.616 61.595 661.535 61.595V62.0769Z" fill="#5F5F5F"/>
<rect width="224.133" height="66.5394" transform="translate(763.094 0.000610352)" fill="white"/>
<g clip-path="url(#clip1_1_196)">
<path d="M766.895 27.1281L774.613 40.9354L783.536 40.9587L791.114 27.1281H794.914V24.6134H783.489V27.1281H786.794L781.27 37.1867L775.676 27.1281H779.689V24.6134H763.094V27.1281H766.895Z" fill="#5F5F5F"/>
<path d="M865.163 27.1281V24.6367H880.459V27.1281H876.659V38.4208H880.2C883.481 38.4208 885.629 36.2787 885.629 33.3915H888.155V40.9587H865.187V38.3975H869.034V27.1048H865.163V27.1281Z" fill="#5F5F5F"/>
<path d="M828.079 24.2642C820.408 24.2642 816.324 28.0362 816.324 32.7861C816.324 37.5825 820.242 41.4244 828.127 41.4244C836.011 41.4244 839.882 37.5825 839.882 32.7861C839.882 28.0594 835.775 24.2642 828.079 24.2642ZM828.009 38.8399C825.2 38.7933 823.972 35.7431 824.019 32.6929C824.066 29.5496 825.601 26.8021 828.221 26.8487C830.841 26.8952 832.234 29.6893 832.187 32.8326C832.139 35.7897 830.888 38.8864 828.009 38.8399Z" fill="#5F5F5F"/>
<path d="M914.215 27.1281L921.934 40.9354L930.857 40.9587L938.434 27.1281H942.235V24.6134H930.81V27.1281H934.115L928.591 37.1867L922.996 27.1281H927.009V24.6134H910.415V27.1281H914.215Z" fill="#5F5F5F"/>
<path d="M975.4 24.2642C967.729 24.2642 963.645 28.0362 963.645 32.7861C963.645 37.5825 967.563 41.4244 975.448 41.4244C983.332 41.4244 987.203 37.5825 987.203 32.7861C987.203 28.0594 983.096 24.2642 975.4 24.2642ZM975.33 38.8399C972.521 38.7933 971.293 35.7431 971.34 32.6929C971.387 29.5496 972.922 26.8021 975.542 26.8487C978.162 26.8952 979.555 29.6893 979.508 32.8326C979.46 35.7897 978.209 38.8864 975.33 38.8399Z" fill="#5F5F5F"/>
</g>
<rect width="143.585" height="66.5394" transform="translate(1083.23 0.000610352)" fill="white"/>
<path d="M1201.69 58.1219C1196 58.1219 1190.56 56.2517 1186.16 52.7631C1181.77 56.2158 1176.33 58.1219 1170.63 58.1219C1164.94 58.1219 1159.5 56.2517 1155.1 52.7631C1150.71 56.2158 1145.27 58.1219 1139.57 58.1219C1133.88 58.1219 1128.44 56.2517 1124.04 52.7631C1119.65 56.2158 1114.21 58.1219 1108.51 58.1219C1101.88 58.1219 1095.65 55.6044 1090.93 51.0009C1086.14 46.3974 1083.47 40.2474 1083.36 33.7019C1083.25 27.1203 1085.7 20.8984 1090.28 16.1151C1094.82 11.3678 1100.98 8.63449 1107.61 8.4187H1107.72H1109.3C1114.71 8.59852 1119.83 10.4687 1124.01 13.7415C1128.15 10.4687 1133.27 8.59852 1138.67 8.4187L1138.78 11.2239V8.4187H1140.37C1145.77 8.59852 1150.89 10.4687 1155.07 13.7415C1159.25 10.4687 1164.33 8.59852 1169.77 8.4187H1169.88H1171.46C1176.87 8.59852 1181.98 10.4687 1186.16 13.7415C1190.31 10.4687 1195.42 8.59852 1200.86 8.4187L1200.97 11.2239V8.4187H1202.56C1209.15 8.63449 1215.31 11.3678 1219.89 16.1151C1224.47 20.8625 1226.92 27.1203 1226.81 33.6659C1226.7 40.2474 1224.03 46.3974 1219.31 51.0009C1214.52 55.6044 1208.29 58.1219 1201.69 58.1219ZM1190.27 48.6991C1193.48 51.0368 1197.44 52.4395 1201.69 52.4395C1212.18 52.4395 1220.86 43.9878 1221.01 33.6299C1221.19 23.2721 1212.83 14.5687 1202.38 14.173H1201.01C1197.01 14.3169 1193.33 15.6836 1190.31 17.8774C1193.91 22.373 1195.78 27.9116 1195.71 33.7019C1195.57 39.2045 1193.69 44.4193 1190.27 48.6991ZM1159.21 48.6991C1162.42 51.0368 1166.38 52.4395 1170.63 52.4395C1174.88 52.4395 1178.81 51.0368 1182.02 48.6991C1178.63 44.4553 1176.72 39.2045 1176.61 33.7019C1176.51 27.9116 1178.42 22.373 1182.02 17.8774C1178.99 15.6836 1175.32 14.3169 1171.32 14.173H1169.95C1165.95 14.3169 1162.27 15.6836 1159.25 17.8774C1162.85 22.373 1164.72 27.9116 1164.65 33.7019C1164.51 39.2045 1162.6 44.4193 1159.21 48.6991ZM1128.11 48.6991C1131.32 51.0368 1135.28 52.4395 1139.54 52.4395C1143.79 52.4395 1147.72 51.0368 1150.92 48.6991C1147.54 44.4553 1145.63 39.2045 1145.52 33.7019C1145.41 27.9116 1147.32 22.373 1150.92 17.8774C1147.9 15.6836 1144.22 14.3169 1140.22 14.173H1138.85C1134.85 14.3169 1131.18 15.6836 1128.15 17.8774C1131.75 22.373 1133.63 27.9116 1133.56 33.7019C1133.41 39.2045 1131.5 44.4193 1128.11 48.6991ZM1107.76 14.1371C1097.31 14.4967 1088.95 23.2361 1089.13 33.594C1089.31 43.9518 1097.95 52.4035 1108.44 52.4035C1112.69 52.4035 1116.62 51.0009 1119.83 48.6632C1116.44 44.4193 1114.53 39.1685 1114.42 33.6659C1114.31 27.8756 1116.22 22.337 1119.83 17.8414C1116.8 15.6476 1113.12 14.2809 1109.12 14.1371H1107.76ZM1155.07 21.9414C1152.62 25.2142 1151.21 29.2422 1151.28 33.594C1151.36 37.6939 1152.76 41.5062 1155.07 44.5992C1157.37 41.5062 1158.78 37.6939 1158.85 33.594C1158.92 29.2422 1157.48 25.2142 1155.07 21.9414ZM1123.97 21.9414C1121.52 25.2142 1120.11 29.2422 1120.19 33.594C1120.26 37.6939 1121.66 41.5062 1123.97 44.5992C1126.28 41.5062 1127.68 37.6939 1127.75 33.594C1127.83 29.2422 1126.42 25.2142 1123.97 21.9414ZM1186.13 21.9414C1183.68 25.2142 1182.27 29.2422 1182.34 33.594C1182.42 37.6939 1183.82 41.5062 1186.13 44.5992C1188.43 41.5062 1189.84 37.6939 1189.91 33.594C1190.02 29.2422 1188.58 25.2142 1186.13 21.9414Z" fill="#5F5F5F"/>
<rect width="217.129" height="66.5394" transform="translate(1322.81 0.000610352)" fill="white"/>
<path d="M1401.47 21.1752H1407.39L1420.65 43.0605H1414.37L1404.47 26.3628L1399.2 35.198H1407.72L1410.27 39.3318H1396.93L1394.54 43.0199H1388.25L1401.47 21.1752ZM1505.78 43.101H1512.07L1514.46 39.4129H1527.81L1525.25 35.2791H1516.73L1522.01 26.4439L1531.9 43.1416H1538.19L1524.93 21.2562H1519.01L1505.78 43.101ZM1420.29 32.1583V35.0764C1420.41 40.8315 1423.66 43.2631 1428.68 43.1416H1445.23V38.6429H1428.72C1425.97 38.7239 1425.76 36.8192 1425.68 34.9143V32.1584V29.2809C1425.76 27.5787 1425.97 25.6334 1428.72 25.6739H1445.23V21.1753H1428.68C1423.66 21.0537 1420.45 23.526 1420.29 29.2405V32.1583ZM1483.11 25.8765H1496.42C1498.28 25.8765 1499.21 26.6871 1499.21 28.2677C1499.21 29.8888 1498.28 30.6589 1496.42 30.6589H1484.49L1485.55 35.3602H1495.73C1497.71 35.3196 1498.85 36.6976 1499.01 38.6025L1499.17 43.1011H1504.45C1504.45 43.1011 1504.4 38.8862 1504.28 38.0351C1504.16 37.184 1503.8 34.8333 1501.73 33.6985C1506.6 30.4968 1504.81 21.2159 1497.83 21.2159H1477.76V43.101H1483.11L1483.11 25.8765ZM1461.33 43.101H1466C1471.76 42.9795 1474.19 39.7372 1474.07 34.7117V21.1752H1468.8V35.8059C1468.88 38.5618 1466.93 38.7644 1465.06 38.8455H1461.33H1457.4C1455.7 38.7645 1453.75 38.5618 1453.79 35.8059V21.1752H1448.4V34.7522C1448.27 39.7777 1450.75 42.9795 1456.47 43.101H1461.33ZM1373.91 30.9242C1373.46 22.7374 1370.66 16.7392 1366.85 13.4564C1362.71 9.93046 1355.01 8.55248 1349.04 8.59303C1343.08 8.55248 1335.38 9.93046 1331.24 13.4564C1327.43 16.7393 1324.63 22.7375 1324.18 30.9242C1323.78 38.6244 1325.44 47.0138 1329.82 51.7557C1334.04 56.4164 1342.47 57.8754 1349 57.8754C1355.53 57.9159 1363.97 56.4164 1368.19 51.7557C1372.57 46.9733 1374.27 38.5839 1373.91 30.9242ZM1347.62 10.6599C1348.43 10.6194 1348.64 10.6194 1349 10.6194C1349.37 10.6194 1349.53 10.6194 1350.38 10.6599L1350.42 28.5734C1350.18 28.5734 1347.83 28.5734 1347.58 28.5734C1347.58 28.5734 1347.58 10.6599 1347.62 10.6599ZM1327.47 38.4621C1327.22 35.3821 1326.29 24.1557 1330.75 17.7522C1332.66 14.9558 1335.46 13.0915 1338.3 12.1188C1342.23 10.7409 1346.93 10.6598 1346.93 10.6598C1345.11 15.1585 1341.34 24.8042 1340.61 26.9521C1339.72 29.5864 1338.94 31.086 1338.17 35.8278C1337.69 39.7186 1336.84 49.4048 1336.59 53.6198C1331.32 51.1071 1328.16 46.3248 1327.47 38.4621ZM1348.96 55.8084C1345.27 55.768 1340.73 55.4032 1337.12 53.8631C1338.34 50.6208 1344.14 36.6791 1347.34 31.2483C1347.58 31.2483 1350.38 31.2483 1350.62 31.2483C1353.79 36.6791 1359.63 50.6208 1360.85 53.8631C1357.2 55.4436 1352.69 55.768 1348.96 55.8084ZM1370.5 38.422C1369.81 46.325 1366.65 51.0668 1361.37 53.6201C1361.13 49.4051 1360.28 39.7189 1359.79 35.8281C1359.02 31.0457 1358.25 29.5867 1357.36 26.9524C1356.63 24.8043 1352.86 15.1586 1351.03 10.66C1351.03 10.66 1355.74 10.741 1359.67 12.119C1362.51 13.0917 1365.31 14.9964 1367.21 17.7524C1371.67 24.1559 1370.74 35.3821 1370.5 38.422Z" fill="#5F5F5F"/>
<defs>
<clipPath id="clip0_1_196">
<rect width="272.104" height="66.54" fill="white" transform="translate(-99.9399)"/>
</clipPath>
<clipPath id="clip1_1_196">
<rect width="224.133" height="17.1835" fill="white" transform="translate(763.094 24.2408)"/>
</clipPath>
</defs>
</svg>
