<svg width="116" height="26" viewBox="0 0 116 26" fill="none" xmlns="http://www.w3.org/2000/svg">
<g clip-path="url(#clip0_46_26129)">
<path fill-rule="evenodd" clip-rule="evenodd" d="M12.8619 21.8954C11.6945 21.8954 10.5781 21.6747 9.55404 21.2711L5.87842 23.6625C7.88879 24.9656 10.2877 25.7219 12.8619 25.7219C17.6219 25.7219 21.7785 23.1363 24.0019 19.2928L20.6884 17.3786C19.125 20.0793 16.2056 21.8954 12.8619 21.8954Z" fill="#1572D3"/>
<path fill-rule="evenodd" clip-rule="evenodd" d="M4.27734 3.28336L8.06235 12.8619L4.27734 22.4385L10.2538 18.5498L19.0006 12.8619L10.2538 7.1721L4.27734 3.28336Z" fill="#1572D3"/>
<path fill-rule="evenodd" clip-rule="evenodd" d="M12.8618 3.82651C16.2056 3.82651 19.1249 5.64264 20.6883 8.34326L24.0019 6.42906C21.7765 2.58558 17.6219 0 12.8618 0C10.2857 0 7.88872 0.756249 5.87646 2.05941L9.55398 4.45074C10.578 4.04716 11.6926 3.82651 12.8618 3.82651Z" fill="#1572D3"/>
<path fill-rule="evenodd" clip-rule="evenodd" d="M2.82885 20.9091L4.58274 16.4847L6.0198 12.86L4.58274 9.23717L2.82885 4.81284C1.05988 7.01558 0 9.81426 0 12.8619C0 15.9076 1.05988 18.7063 2.82885 20.9091Z" fill="#1572D3"/>
</g>
<path d="M38.864 18.361L36.4 14.009H35.344V18.361H33.104V7.19296H37.296C38.16 7.19296 38.896 7.34763 39.504 7.65696C40.112 7.95563 40.5653 8.36629 40.864 8.88896C41.1733 9.40096 41.328 9.97696 41.328 10.617C41.328 11.353 41.1147 12.0196 40.688 12.617C40.2613 13.2036 39.6267 13.609 38.784 13.833L41.456 18.361H38.864ZM35.344 12.329H37.216C37.824 12.329 38.2773 12.185 38.576 11.897C38.8747 11.5983 39.024 11.1876 39.024 10.665C39.024 10.153 38.8747 9.75829 38.576 9.48096C38.2773 9.19296 37.824 9.04896 37.216 9.04896H35.344V12.329ZM45.594 9.00096V11.801H49.354V13.577H45.594V16.537H49.834V18.361H43.354V7.17696H49.834V9.00096H45.594ZM61.4216 18.361H59.1816L54.1096 10.697V18.361H51.8696V7.17696H54.1096L59.1816 14.857V7.17696H61.4216V18.361ZM71.2353 7.19296V9.00096H68.2593V18.361H66.0193V9.00096H63.0433V7.19296H71.2353ZM72.3256 12.761C72.3256 11.6623 72.571 10.681 73.0616 9.81696C73.563 8.94229 74.2403 8.26496 75.0936 7.78496C75.9576 7.29429 76.923 7.04896 77.9896 7.04896C79.2376 7.04896 80.331 7.36896 81.2696 8.00896C82.2083 8.64896 82.8643 9.53429 83.2376 10.665H80.6616C80.4056 10.1316 80.043 9.73163 79.5736 9.46496C79.115 9.19829 78.5816 9.06496 77.9736 9.06496C77.323 9.06496 76.7416 9.21963 76.2296 9.52896C75.7283 9.82763 75.3336 10.2543 75.0456 10.809C74.7683 11.3636 74.6296 12.0143 74.6296 12.761C74.6296 13.497 74.7683 14.1476 75.0456 14.713C75.3336 15.2676 75.7283 15.6996 76.2296 16.009C76.7416 16.3076 77.323 16.457 77.9736 16.457C78.5816 16.457 79.115 16.3236 79.5736 16.057C80.043 15.7796 80.4056 15.3743 80.6616 14.841H83.2376C82.8643 15.9823 82.2083 16.873 81.2696 17.513C80.3416 18.1423 79.2483 18.457 77.9896 18.457C76.923 18.457 75.9576 18.217 75.0936 17.737C74.2403 17.2463 73.563 16.569 73.0616 15.705C72.571 14.841 72.3256 13.8596 72.3256 12.761ZM91.9989 16.233H87.5509L86.8149 18.361H84.4629L88.4789 7.17696H91.0869L95.1029 18.361H92.7349L91.9989 16.233ZM91.3909 14.441L89.7749 9.76896L88.1589 14.441H91.3909ZM102.364 18.361L99.9 14.009H98.844V18.361H96.604V7.19296H100.796C101.66 7.19296 102.396 7.34763 103.004 7.65696C103.612 7.95563 104.065 8.36629 104.364 8.88896C104.673 9.40096 104.828 9.97696 104.828 10.617C104.828 11.353 104.615 12.0196 104.188 12.617C103.761 13.2036 103.127 13.609 102.284 13.833L104.956 18.361H102.364ZM98.844 12.329H100.716C101.324 12.329 101.777 12.185 102.076 11.897C102.375 11.5983 102.524 11.1876 102.524 10.665C102.524 10.153 102.375 9.75829 102.076 9.48096C101.777 9.19296 101.324 9.04896 100.716 9.04896H98.844V12.329ZM110.71 18.473C109.931 18.473 109.227 18.3396 108.598 18.073C107.979 17.8063 107.489 17.4223 107.126 16.921C106.763 16.4196 106.577 15.8276 106.566 15.145H108.966C108.998 15.6036 109.158 15.9663 109.446 16.233C109.745 16.4996 110.15 16.633 110.662 16.633C111.185 16.633 111.595 16.5103 111.894 16.265C112.193 16.009 112.342 15.6783 112.342 15.273C112.342 14.9423 112.241 14.6703 112.038 14.457C111.835 14.2436 111.579 14.0783 111.27 13.961C110.971 13.833 110.555 13.6943 110.022 13.545C109.297 13.3316 108.705 13.1236 108.246 12.921C107.798 12.7076 107.409 12.393 107.078 11.977C106.758 11.5503 106.598 10.985 106.598 10.281C106.598 9.61963 106.763 9.04363 107.094 8.55296C107.425 8.06229 107.889 7.68896 108.486 7.43296C109.083 7.1663 109.766 7.03296 110.534 7.03296C111.686 7.03296 112.619 7.31563 113.334 7.88096C114.059 8.43563 114.459 9.21429 114.534 10.217H112.07C112.049 9.83296 111.883 9.51829 111.574 9.27296C111.275 9.01696 110.875 8.88896 110.374 8.88896C109.937 8.88896 109.585 9.00096 109.318 9.22496C109.062 9.44896 108.934 9.77429 108.934 10.201C108.934 10.4996 109.03 10.7503 109.222 10.953C109.425 11.145 109.67 11.305 109.958 11.433C110.257 11.5503 110.673 11.689 111.206 11.849C111.931 12.0623 112.523 12.2756 112.982 12.489C113.441 12.7023 113.835 13.0223 114.166 13.449C114.497 13.8756 114.662 14.4356 114.662 15.129C114.662 15.7263 114.507 16.281 114.198 16.793C113.889 17.305 113.435 17.7156 112.838 18.025C112.241 18.3236 111.531 18.473 110.71 18.473Z" fill="#1572D3"/>
<defs>
<clipPath id="clip0_46_26129">
<rect width="24" height="25.7219" fill="white"/>
</clipPath>
</defs>
</svg>
